HIERARCHY
ROOT locator2
{
  OFFSET 53.6172 30.1899 0.816905
  CHANNELS 6 Xposition Yposition Zposition Zrotation Xrotation Yrotation
  JOINT koshi
  {
    OFFSET 0 0 0
    CHANNELS 6 Xposition Yposition Zposition Zrotation Xrotation Yrotation
    JOINT sippo01
    {
      OFFSET 0 42.8363 -0.548134
      CHANNELS 6 Xposition Yposition Zposition Zrotation Xrotation Yrotation
      JOINT sippo02
      {
        OFFSET 0 44.0461 -3.28882
        CHANNELS 6 Xposition Yposition Zposition Zrotation Xrotation Yrotation
        JOINT sippo03
        {
          OFFSET 0 34.1929 -2.46662
          CHANNELS 6 Xposition Yposition Zposition Zrotation Xrotation Yrotation
          JOINT sippo04
          {
            OFFSET 0 30.0959 -1.75404
            CHANNELS 6 Xposition Yposition Zposition Zrotation Xrotation Yrotation
            JOINT sippo05
            {
              OFFSET 0 28.3637 -1.75404
              CHANNELS 6 Xposition Yposition Zposition Zrotation Xrotation Yrotation
              JOINT sippo06
              {
                OFFSET 0 31.6071 -3.2043
                CHANNELS 6 Xposition Yposition Zposition Zrotation Xrotation Yrotation
                End Site
                {
                  OFFSET 0 0 0
                }
              }
            }
          }
        }
      }
    }
    JOINT R_momo
    {
      OFFSET -27.891 13.5892 3.92723
      CHANNELS 6 Xposition Yposition Zposition Zrotation Xrotation Yrotation
      JOINT R_hiza
      {
        OFFSET 0 28.01 1.8232
        CHANNELS 6 Xposition Yposition Zposition Zrotation Xrotation Yrotation
        JOINT R_ashi
        {
          OFFSET 0 24.3992 -2.49174
          CHANNELS 6 Xposition Yposition Zposition Zrotation Xrotation Yrotation
          End Site
          {
            OFFSET 0 0 0
          }
        }
      }
    }
    JOINT L_momo
    {
      OFFSET 27.891 13.5892 3.92714
      CHANNELS 6 Xposition Yposition Zposition Zrotation Xrotation Yrotation
      JOINT L_hiza
      {
        OFFSET 0 28.0098 1.82319
        CHANNELS 6 Xposition Yposition Zposition Zrotation Xrotation Yrotation
        JOINT L_ashi
        {
          OFFSET 0 24.3992 -2.49171
          CHANNELS 6 Xposition Yposition Zposition Zrotation Xrotation Yrotation
          End Site
          {
            OFFSET 0 0 0
          }
        }
      }
    }
  }
  JOINT hara
  {
    OFFSET 0 2.15392 0
    CHANNELS 6 Xposition Yposition Zposition Zrotation Xrotation Yrotation
    JOINT mune
    {
      OFFSET 0 62.0609 0.472494
      CHANNELS 6 Xposition Yposition Zposition Zrotation Xrotation Yrotation
      JOINT R_kata
      {
        OFFSET 22.6695 9.65301 -5.3622
        CHANNELS 6 Xposition Yposition Zposition Zrotation Xrotation Yrotation
        JOINT R_hiji
        {
          OFFSET 0 25.813 1.69098
          CHANNELS 6 Xposition Yposition Zposition Zrotation Xrotation Yrotation
          JOINT R_te
          {
            OFFSET 0 28.5636 -0.966307
            CHANNELS 6 Xposition Yposition Zposition Zrotation Xrotation Yrotation
            End Site
            {
              OFFSET 0 0 0
            }
          }
        }
      }
      JOINT L_kata
      {
        OFFSET -22.6695 9.65298 -5.3622
        CHANNELS 6 Xposition Yposition Zposition Zrotation Xrotation Yrotation
        JOINT L_hiji
        {
          OFFSET 0 25.813 1.69102
          CHANNELS 6 Xposition Yposition Zposition Zrotation Xrotation Yrotation
          JOINT L_te
          {
            OFFSET 0 28.5636 -0.966295
            CHANNELS 6 Xposition Yposition Zposition Zrotation Xrotation Yrotation
            End Site
            {
              OFFSET 0 0 0
            }
          }
        }
      }
      JOINT kubi
      {
        OFFSET 0 23.1438 -0.944988
        CHANNELS 6 Xposition Yposition Zposition Zrotation Xrotation Yrotation
        JOINT atama
        {
          OFFSET 0 20.8625 4.12737
          CHANNELS 6 Xposition Yposition Zposition Zrotation Xrotation Yrotation
          JOINT ago
          {
            OFFSET 0 7.552 -7.58201
            CHANNELS 6 Xposition Yposition Zposition Zrotation Xrotation Yrotation
            End Site
            {
              OFFSET 0 0 0
            }
          }
        }
      }
    }
  }
}
MOTION
Frames:	4
Frame Time:	0.0333333
386.229 30.2203 15.8395 -90 -3.50835e-015 -90 0 0 0 144.103 2.36075 -0.363798 -5.06639e-007 42.8363 -0.54814 2.19975 -14.9453 4.24164 2.94537e-007 44.0461 -3.28881 4.65641 9.4824 -4.59599 6.46886e-006 34.1929 -2.46661 4.10974 2.05233 -1.11489 -2.62739e-006 30.0959 -1.75404 5.67687 9.99547 -3.09689 -1.02052e-006 28.3637 -1.75404 9.53351 -5.79009 5.75629 -8.42844e-006 31.6072 -3.20431 5.3356 -5.84869 -5.68332 -27.891 13.5892 3.92723 120.05 -11.3019 -22.1215 -3.61207e-006 28.01 1.8232 -8.29653 -84.8189 -1.04053 -7.55587e-007 24.3992 -2.49173 -126.682 84.2191 152.901 27.891 13.5892 3.92714 -63.8868 -43.2455 82.7388 7.73648e-006 28.0098 1.82319 -7.58525 -75.6804 11.3008 -3.2678e-006 24.3992 -2.49173 153.831 38.2452 161.995 1.07696 1.07695 5.85687e-008 -60.1677 -3.25315 -3.9698 1.78813e-007 62.0609 0.472494 1.55008e-008 1.0037e-005 -5.04165e-009 22.6695 9.65298 -5.36221 -156.151 17.6941 -21.5943 -6.09199e-006 25.813 1.69098 0.785576 -76.0248 -3.01446 4.3571e-006 28.5636 -0.966314 107.827 -31.4174 -58.8784 -22.6695 9.65297 -5.3622 119.634 -4.918 -57.6343 -4.48413e-006 25.813 1.69102 -179.928 -73.5854 -177.518 1.02938e-005 28.5636 -0.966297 -54.6519 48.5214 124.795 1.49011e-007 23.1438 -0.94499 -22.4184 6.71109 -4.67763 1.86408e-006 20.8625 4.12738 -3.61346 2.46543 9.25374 1.33179e-006 7.55204 -7.58201 -3.63378e-006 -7.9576 9.41537e-006 
389.569 30.1288 18.6146 -90 -3.50835e-015 -90 0 0 0 140.634 2.19509 0.100922 -5.06639e-007 42.8363 -0.54814 2.00846 -13.955 4.33323 2.64706e-007 44.0461 -3.28881 3.90609 9.82162 -3.93695 6.34067e-006 34.1929 -2.46661 3.90186 2.25942 -0.823016 -2.78789e-006 30.0959 -1.75404 6.05258 10.1275 -3.19012 -1.00186e-006 28.3637 -1.75404 9.61065 -5.589 5.69449 -8.33394e-006 31.6072 -3.20431 5.42754 -4.98788 -6.09123 -27.891 13.5892 3.92723 120.529 -13.3784 -26.7579 -3.65615e-006 28.01 1.8232 -6.12356 -84.8673 -1.21218 -8.14314e-007 24.3992 -2.49173 -138.426 81.2003 169.297 27.891 13.5892 3.92714 -70.0826 -40.9067 80.6132 7.91329e-006 28.0098 1.82319 -17.1573 -82.5765 4.16701 -3.56693e-006 24.3992 -2.49173 153.128 39.2054 162.454 1.08355 1.07037 6.03673e-008 -61.7609 -2.33593 -4.33626 1.78813e-007 62.0609 0.472494 1.73176e-005 1.0037e-005 1.00125e-005 22.6695 9.65298 -5.36221 -154.147 25.0387 -19.7485 -6.02571e-006 25.813 1.69098 2.5408 -85.9896 -1.48095 4.33214e-006 28.5636 -0.966315 92.0145 -33.592 -67.0262 -22.6695 9.65297 -5.3622 131.426 1.00216 -51.3314 -3.86185e-006 25.813 1.69102 -179.999 -68.9672 -178.225 1.02905e-005 28.5636 -0.966297 -54.502 39.9575 117.248 1.4901e-007 23.1438 -0.94499 -22.96 8.31326 -5.59223 1.8983e-006 20.8625 4.12738 -1.68509 3.39749 10.7569 1.37991e-006 7.55204 -7.58201 -8.13747e-006 -11.8774 8.1262e-006 
392.845 30.0391 22.6458 -90 -3.50835e-015 -90 0 0 0 137.234 2.0304 0.54365 -5.06639e-007 42.8363 -0.54814 1.82303 -12.9833 4.42957 2.35444e-007 44.0461 -3.28881 3.17031 10.1533 -3.28341 6.2141e-006 34.1929 -2.46661 3.70188 3.74912 0.11637 -2.94295e-006 30.0959 -1.75404 6.43271 10.9165 -3.35841 -1.037e-006 28.3637 -1.75404 9.73291 -5.01263 5.57056 -8.21749e-006 31.6072 -3.2043 5.54803 -3.76756 -6.68949 -27.891 13.5892 3.92723 120.88 -15.4804 -31.2825 -3.69026e-006 28.01 1.8232 -2.12781 -84.9163 0.47689 -8.73047e-007 24.3992 -2.49173 -143.887 78.0668 177.99 27.891 13.5892 3.92714 -80.7512 -38.9818 69.6539 7.97022e-006 28.0098 1.82319 -145.606 -85.6165 -119.462 -4.31243e-006 24.3992 -2.49173 156.07 38.7906 164.348 1.09001 1.06393 5.72158e-008 -63.3453 -1.51101 -4.65183 1.78813e-007 62.0609 0.472494 1.54685e-008 1.0037e-005 -5.06084e-009 22.6695 9.65298 -5.36221 -156.887 33.1257 -8.78395 -6.0748e-006 25.813 1.69098 178.357 -84.2303 174.114 4.33589e-006 28.5636 -0.966314 72.6871 -37.2368 -76.3507 -22.6695 9.65297 -5.3622 140.392 7.09957 -42.9365 -3.338e-006 25.813 1.69102 179.958 -64.4388 -178.892 1.04689e-005 28.5636 -0.966298 -56.2999 30.3234 109.336 1.49011e-007 23.1438 -0.94499 -23.3596 9.79938 -5.89807 1.91802e-006 20.8625 4.12738 0.208892 4.42219 11.6178 1.37622e-006 7.55204 -7.58201 9.30945e-007 -16.2918 9.8749e-006 
396.152 29.9484 26.7168 -90 -3.50835e-015 -90 0 0 0 134.525 1.88726 0.953582 -5.06639e-007 42.8363 -0.54814 1.6377 -12.0015 4.53343 2.05879e-007 44.0461 -3.28881 2.42516 10.4873 -2.61412 6.08533e-006 34.1929 -2.46661 3.5031 5.25344 1.07435 -3.10042e-006 30.0959 -1.75404 6.81921 11.711 -3.539 -1.08491e-006 28.3637 -1.75404 9.78393 -3.85012 5.33708 -8.15729e-006 31.6072 -3.2043 5.7028 -2.15128 -7.50093 -27.891 13.5892 3.92723 119.396 -18.0419 -36.0926 -3.68413e-006 28.01 1.8232 1.96493 -84.9403 1.02378 -8.8525e-007 24.3992 -2.49173 -147.018 74.8424 -175.548 27.891 13.5892 3.92714 -89.3665 -35.0173 65.1086 8.06732e-006 28.0098 1.82319 -169.147 -75.0931 -141.165 -4.96352e-006 24.3992 -2.49173 158.372 39.4107 165.959 1.09654 1.05738 5.78592e-008 -64.9649 -0.757323 -4.92826 1.78813e-007 62.0609 0.472494 1.52338e-008 1.0037e-005 -5.18479e-009 22.6695 9.65298 -5.36221 -166.414 38.545 8.41517 -6.09839e-006 25.813 1.69098 179.456 -73.6835 175.517 4.62397e-006 28.5636 -0.966313 50.7226 -38.6857 -86.5694 -22.6695 9.65297 -5.3622 146.824 11.5323 -37.6069 -3.17052e-006 25.813 1.69102 179.893 -69.6252 -179.587 1.11991e-005 28.5636 -0.966299 -59.2256 20.4635 101.478 1.49012e-007 23.1438 -0.94499 -24.0636 11.0149 -5.73315 1.94846e-006 20.8625 4.12738 2.30167 5.56585 11.8331 1.33165e-006 7.55204 -7.58201 -5.79531e-007 -20.9436 1.55251e-006 
